<?xml version="1.0" standalone="no"?>
<!DOCTYPE svg PUBLIC "-//W3C//DTD SVG 20010904//EN"
 "http://www.w3.org/TR/2001/REC-SVG-20010904/DTD/svg10.dtd">
<svg version="1.0" xmlns="http://www.w3.org/2000/svg"
 width="220.000000pt" height="328.000000pt" viewBox="0 0 220.000000 328.000000"
 preserveAspectRatio="xMidYMid meet">
<metadata>
Created by potrace 1.14, written by Peter Selinger 2001-2017
</metadata>
<g transform="translate(0.000000,328.000000) scale(0.100000,-0.100000)"
stroke="none">
<path d="M1615 3199 c-44 -4 -253 -10 -465 -13 -436 -8 -481 -11 -510 -34 -18
-15 -19 -21 -9 -50 8 -23 9 -83 5 -195 -9 -214 -9 -221 -56 -622 -16 -143 -50
-387 -54 -393 -2 -4 -7 -35 -10 -68 -3 -33 -12 -92 -20 -130 -8 -38 -22 -114
-31 -170 -8 -55 -19 -114 -24 -130 -5 -16 -12 -54 -16 -84 -5 -48 -34 -179
-80 -360 -13 -53 -46 -147 -118 -335 -37 -97 -126 -271 -163 -320 -15 -20 -21
-39 -18 -53 14 -51 147 -94 334 -107 52 -4 113 -9 135 -10 314 -26 428 -37
470 -45 90 -17 201 -15 220 3 11 11 33 17 66 17 45 0 50 -2 44 -19 -13 -43 48
-28 67 16 7 15 19 32 26 37 8 4 37 56 64 115 27 58 54 114 59 123 5 10 9 23 9
29 0 6 15 44 34 84 19 39 38 85 42 101 4 16 13 38 20 49 6 11 15 31 19 45 4
14 17 54 30 90 26 76 75 229 99 315 20 69 91 296 107 340 31 89 116 469 140
625 5 36 18 110 28 165 45 235 68 435 68 575 0 14 1 102 2 195 1 94 2 177 1
186 0 13 -15 18 -67 24 -95 10 -352 13 -448 4z m437 -77 c24 -24 16 -465 -11
-605 -5 -29 -15 -83 -21 -122 -6 -38 -24 -142 -41 -230 -92 -482 -124 -616
-214 -895 -26 -80 -51 -161 -55 -180 -4 -19 -18 -66 -30 -105 -12 -38 -28 -90
-35 -115 -22 -74 -81 -230 -115 -305 -18 -38 -38 -88 -44 -110 -7 -22 -41
-100 -76 -173 l-64 -133 -68 7 c-42 4 -91 2 -126 -6 -48 -10 -82 -9 -193 4
-74 9 -181 18 -239 21 -155 8 -303 26 -320 40 -8 7 -55 16 -105 19 -97 8 -155
22 -155 38 0 16 70 116 85 122 9 3 15 19 15 40 0 20 9 55 19 78 70 159 91 213
111 288 13 47 29 99 37 117 7 17 18 53 23 80 5 26 15 66 21 88 23 85 90 437
109 569 11 77 23 149 25 160 9 37 44 324 75 611 16 154 34 319 40 366 5 47 10
137 10 201 l0 116 29 5 c17 4 166 7 333 9 167 1 368 5 448 9 247 10 517 6 532
-9z"/>
<path d="M1149 3023 c-5 -41 6 -111 18 -125 18 -20 42 -24 44 -8 1 6 3 15 4
20 1 6 3 13 4 18 1 4 5 1 10 -7 5 -8 16 -11 30 -6 16 5 21 14 21 39 0 47 -22
64 -49 37 -19 -19 -21 -19 -21 -3 0 10 -5 23 -12 30 -13 13 -47 16 -49 5z"/>
<path d="M1406 3021 c-7 -10 7 -61 25 -89 10 -16 24 -22 51 -22 20 0 40 -5 43
-10 12 -19 25 1 25 39 0 20 -6 45 -13 55 -18 24 -51 17 -55 -12 -5 -31 -20
-28 -28 6 -9 35 -35 54 -48 33z"/>
<path d="M1318 2995 c-10 -22 -8 -30 9 -53 29 -39 48 -35 47 10 -1 37 -17 68
-35 68 -5 0 -15 -11 -21 -25z"/>
<path d="M1315 2790 c-14 -43 53 -107 69 -65 8 21 23 19 29 -5 12 -47 61 -11
51 38 -8 38 -36 50 -69 28 -22 -15 -24 -14 -30 4 -8 26 -42 26 -50 0z"/>
<path d="M1230 2775 c-11 -21 -10 -28 5 -51 14 -22 19 -24 30 -13 15 17 8 89
-9 89 -7 0 -19 -11 -26 -25z"/>
<path d="M1146 2765 c-33 -31 -37 -98 -7 -115 29 -15 31 -14 31 34 0 25 5 48
10 51 12 8 13 42 1 49 -5 3 -20 -5 -35 -19z"/>
<path d="M1665 2550 c-34 -21 -60 -54 -105 -130 -54 -92 -33 -202 50 -258 41
-27 76 -24 127 10 43 30 57 62 37 83 -14 13 -18 13 -40 -1 -13 -9 -24 -20 -24
-24 0 -14 -58 -22 -79 -10 -34 18 -24 37 25 49 39 10 44 14 39 32 -4 13 0 28
10 40 24 26 4 49 -41 49 -19 0 -34 3 -34 6 0 20 67 97 96 109 38 16 44 39 15
55 -28 14 -42 12 -76 -10z"/>
<path d="M1120 2394 l-50 -46 -35 31 c-20 17 -44 31 -55 31 -21 0 -50 -25 -50
-44 0 -13 -31 -46 -44 -46 -3 0 -11 11 -16 25 -11 29 -36 43 -51 28 -15 -15 7
-95 32 -115 33 -28 59 -22 100 22 21 22 41 40 46 40 4 0 19 -9 33 -20 41 -32
81 -26 134 21 42 37 49 40 64 27 57 -48 152 -40 152 13 0 21 -7 23 -62 20 -27
-2 -47 5 -79 28 -23 17 -48 31 -56 31 -8 0 -36 -21 -63 -46z"/>
<path d="M1166 1961 c-10 -11 -30 -24 -45 -31 -24 -10 -35 -8 -67 9 -46 25
-60 26 -106 6 -22 -8 -50 -12 -72 -8 -29 4 -36 2 -36 -11 0 -22 34 -54 64 -62
14 -3 48 2 75 11 49 16 52 16 77 -4 36 -28 77 -26 134 6 45 25 52 26 84 15 42
-15 86 -7 86 17 0 19 -18 29 -96 54 -66 22 -77 21 -98 -2z"/>
<path d="M1577 1930 c-18 -22 -39 -59 -46 -82 -7 -24 -19 -50 -25 -58 -7 -8
-18 -39 -24 -68 -11 -47 -10 -57 7 -90 46 -89 121 -122 185 -82 45 27 65 56
59 81 -7 26 -25 24 -55 -5 -30 -30 -70 -41 -97 -26 -40 21 -24 48 30 53 41 4
59 20 52 46 -5 21 -9 22 -66 16 -43 -5 -58 -4 -53 4 4 6 19 11 34 11 53 0 101
13 107 27 9 26 -15 43 -61 43 -46 0 -58 17 -31 44 6 8 19 23 27 35 16 24 41
27 70 9 21 -14 25 -12 34 18 10 34 -24 64 -72 64 -35 0 -45 -6 -75 -40z"/>
<path d="M835 1524 c-27 -9 -68 -18 -90 -22 -43 -8 -57 -31 -34 -59 10 -11 24
-14 58 -9 24 3 50 11 56 16 7 6 35 13 62 16 38 5 56 2 86 -15 47 -26 60 -26
108 1 28 15 39 28 39 45 0 19 -5 23 -30 23 -17 0 -38 -5 -48 -11 -13 -8 -30
-6 -70 10 -61 24 -70 25 -137 5z"/>
<path d="M985 1012 c-11 -2 -27 -9 -35 -16 -54 -41 -76 -44 -131 -16 -39 20
-40 20 -82 2 -50 -22 -77 -63 -57 -87 16 -19 46 -20 53 -1 3 8 19 22 36 30 27
14 31 14 46 0 24 -24 101 -31 123 -11 34 31 64 35 98 15 34 -20 148 -42 171
-34 11 5 9 12 -8 36 -19 24 -30 30 -62 30 -39 0 -107 25 -107 40 0 11 -22 17
-45 12z"/>
<path d="M613 717 c-63 -15 -68 -19 -53 -47 11 -21 16 -22 69 -15 31 5 81 8
111 7 30 0 80 -1 110 -2 76 -2 157 4 164 11 4 3 2 19 -4 34 -10 26 -12 27 -58
20 -56 -9 -121 -10 -217 -2 -41 4 -92 1 -122 -6z"/>
<path d="M1154 649 c-20 -10 -65 -79 -94 -146 -8 -18 -19 -32 -25 -32 -31 4
-45 -3 -45 -20 0 -11 5 -23 10 -26 15 -10 12 -35 -5 -35 -21 0 -19 -24 5 -45
11 -10 31 -37 45 -61 61 -105 172 -117 219 -25 14 27 14 31 0 46 -14 14 -19
13 -50 -15 -19 -16 -46 -30 -59 -30 -28 0 -65 32 -65 55 0 16 5 19 53 29 15 4
27 11 27 17 0 19 -28 39 -57 40 -23 0 -17 4 29 22 31 13 60 26 64 30 14 13
-19 37 -52 37 -40 0 -41 6 -11 51 26 39 49 47 84 28 20 -11 26 -11 33 1 36 57
-38 111 -106 79z"/>
</g>
</svg>
