<?xml version="1.0" encoding="utf-8"?>
<!-- Generator: Adobe Illustrator 19.2.1, SVG Export Plug-In . SVG Version: 6.00 Build 0)  -->
<svg version="1.1" id="layer" xmlns="http://www.w3.org/2000/svg" xmlns:xlink="http://www.w3.org/1999/xlink" x="0px" y="0px"
	 viewBox="0 0 652 652" style="enable-background:new 0 0 652 652;" xml:space="preserve">
<style type="text/css">
	.st0{fill:#4D4D4D;}
	.st1{fill:#8AB000;stroke:#769616;stroke-width:9.9598;stroke-linecap:round;}
	.st2{fill:#FFFFFF;fill-opacity:0.298;}
	.st3{fill:#263238;fill-opacity:0.2;}
	.st4{fill:#8AB000;}
	.st5{fill:#AEEA00;}
	.st6{fill:#1976D2;}
	.st7{fill:#FFFFFF;fill-opacity:0.2;}
	.st8{fill:#0D47A1;}
	.st9{fill:none;stroke:#0D47A1;stroke-width:7.5695;stroke-linecap:round;}
	.st10{fill:#FFFFFF;}
	.st11{fill:url(#SVGID_1_);}
</style>
<g>
	<path class="st0" d="M238.2,358.3l8.1-1.6v-54.9l-8.1-1.6v-9.3h60.9v21h-11.8l-0.7-9.1h-25v21.1h26.8v11.8h-26.8v21l8.2,1.6v9.2
		h-31.7L238.2,358.3z M338.2,340.7h-29.6v-11.8h29.6L338.2,340.7z M381.9,290.9c9.4,0,17.1,3,23.1,9c6.1,6,9.1,13.6,9.1,23v12.7
		c0,9.4-3,17.1-9.1,23c-6.1,5.9-13.8,8.9-23.1,8.9h-34.4v-9.2l8.1-1.6v-54.9l-8.1-1.6v-9.3h8.1H381.9z M371,302.8v52.9h10.1
		c5.5,0,9.8-1.9,12.9-5.6c3.1-3.7,4.7-8.6,4.7-14.6v-12.8c0-5.9-1.6-10.7-4.7-14.5c-3.1-3.7-7.4-5.6-12.9-5.6H371z M423.3,358.3
		l7.4-1.6v-35.3l-8.1-1.6v-9.3h22.4l0.7,8.3c1.3-2.9,3-5.2,5.2-6.9c2.1-1.6,4.5-2.5,7.3-2.5c0.8,0,1.6,0.1,2.5,0.2
		c0.9,0.1,1.7,0.2,2.3,0.4l-1.6,14l-6.3-0.2c-2.2,0-4.1,0.4-5.6,1.3c-1.5,0.9-2.6,2.1-3.4,3.7v27.6l7.4,1.6v9.2h-30.1L423.3,358.3z
		 M466.5,338.5c0-8.5,2.4-15.4,7.1-20.8c4.8-5.4,11.3-8.1,19.7-8.1c8.4,0,15,2.7,19.7,8.1c4.8,5.4,7.2,12.4,7.2,20.9v1.1
		c0,8.6-2.4,15.5-7.2,20.9c-4.7,5.4-11.3,8-19.6,8c-8.4,0-15.1-2.7-19.8-8c-4.7-5.4-7.1-12.4-7.1-20.9V338.5z M481.8,339.6
		c0,5.2,0.9,9.4,2.7,12.5c1.8,3.1,4.8,4.7,8.8,4.7c4,0,6.9-1.6,8.7-4.7c1.9-3.2,2.8-7.3,2.8-12.5v-1.1c0-5-0.9-9.2-2.8-12.4
		c-1.9-3.2-4.8-4.8-8.8-4.8c-4,0-6.9,1.6-8.7,4.8c-1.8,3.2-2.7,7.3-2.7,12.4V339.6z M526.3,358.3l7.4-1.6v-35.3l-8.2-1.6v-9.3h23.5
		v46.1l7.4,1.6v9.2h-30.1V358.3z M549.1,297h-15.3v-11.5h15.3V297z M598.5,360.5c-1.8,2.6-3.9,4.6-6.4,6c-2.4,1.4-5.2,2-8.3,2
		c-7,0-12.5-2.6-16.3-7.7c-3.9-5.1-5.8-11.9-5.8-20.3v-1.1c0-9,1.9-16.2,5.8-21.7c3.9-5.5,9.4-8.2,16.4-8.2c2.8,0,5.4,0.6,7.7,1.9
		c2.3,1.2,4.3,3,6,5.3v-20.4l-8.2-1.6v-9.3h23.5v71.2l7.4,1.6v9.2h-20.7L598.5,360.5z M577,340.6c0,5,0.8,8.9,2.5,11.8
		c1.7,2.8,4.4,4.3,8.2,4.3c2.2,0,4.2-0.5,5.8-1.4c1.6-0.9,3-2.2,4-3.9v-24.1c-1-1.8-2.4-3.2-4-4.2c-1.6-1-3.5-1.5-5.7-1.5
		c-3.7,0-6.5,1.7-8.2,5c-1.7,3.3-2.6,7.7-2.6,13V340.6z"/>
</g>
<g>
	<path class="st1" d="M195.9,236.9L179,258.8"/>
	<path class="st2" d="M195.8,231.9c1.8,0,3,0.8,3.9,1.8c-8.1,9.6-9.4,11.1-20.5,24.8c-4.1,5.3-8.3,2.5-4.2-2.7l16.9-21.9
		C192.9,232.6,194.3,232,195.8,231.9L195.8,231.9z"/>
	<path class="st3" d="M199.8,233.8c0.5,0.6,2.2,3.2,0.1,6.2l-16.9,21.9c-4.1,5.3-4.6-2.4-4.6-2.4S193.2,241.5,199.8,233.8z"/>
	<path class="st4" d="M196.9,232.9c1.7,0,3.8,0.6,3.3,3.2c-0.4,2-18.6,24.2-18.6,24.2c-4.1,5.3-9.9,2.7-5.9-2.6l16.9-21.8
		C193.7,234.7,195.1,232.9,196.9,232.9z"/>
</g>
<g>
	<path class="st1" d="M25.3,236.9l16.9,21.9"/>
	<path class="st2" d="M25.4,231.9c-1.8,0-3,0.7-3.9,1.8c8.1,9.6,9.4,11.1,20.5,24.8c4.1,5.3,8.3,2.5,4.2-2.7l-16.9-21.9
		C28.3,232.7,26.9,231.9,25.4,231.9z"/>
	<path class="st3" d="M21.5,233.8c-1.5,1.8-1.5,4.4-0.1,6.2l16.9,21.9c4.1,5.3,4.6-2.4,4.6-2.4S28,241.5,21.5,233.8z"/>
	<path class="st4" d="M24.3,232.9c-1.7,0-3.8,0.6-3.3,3.2c0.4,2,18.6,24.2,18.6,24.2c4.1,5.3,9.9,2.7,5.9-2.6l-16.9-21.8
		C27.6,234.7,26.2,232.9,24.3,232.9z"/>
</g>
<g transform="translate(40.672 -1004.938)">
	<path class="st5" d="M6.2,1255.8h127.5c6.6,0,12,5.4,12,12v27.9c0,6.6-5.4,12-12,12H6.2c-6.6,0-12-5.4-12-12v-27.9
		C-5.7,1261.1-0.4,1255.8,6.2,1255.8z"/>
	<path class="st3" d="M6.2,1267.7h127.5c6.6,0,12,5.4,12,12v15.9c0,6.6-5.4,12-12,12H6.2c-6.6,0-12-5.4-12-12v-15.9
		C-5.7,1273.1-0.4,1267.7,6.2,1267.7z"/>
	<path class="st2" d="M6.2,1255.8h127.5c6.6,0,12,5.4,12,12v15.9c0,6.6-5.4,12-12,12H6.2c-6.6,0-12-5.4-12-12v-15.9
		C-5.7,1261.1-0.4,1255.8,6.2,1255.8z"/>
	<path class="st5" d="M6.2,1259.8h127.5c6.6,0,12,4.5,12,10.1v23.6c0,5.6-5.4,10.1-12,10.1H6.2c-6.6,0-12-4.5-12-10.1v-23.6
		C-5.7,1264.3-0.4,1259.8,6.2,1259.8z"/>
</g>
<g transform="translate(-1.328 -1004.938)">
	<path class="st6" d="M48.2,1311.6h127.5c6.6,0,12,5.4,12,12v79.7c0,6.6-5.4,12-12,12H48.2c-6.6,0-12-5.4-12-12v-79.7
		C36.3,1316.9,41.6,1311.6,48.2,1311.6z"/>
	<path class="st3" d="M48.2,1363.4h127.5c6.6,0,12,5.4,12,12v27.9c0,6.6-5.4,12-12,12H48.2c-6.6,0-12-5.4-12-12v-27.9
		C36.3,1368.7,41.6,1363.4,48.2,1363.4z"/>
	<path class="st7" d="M48.2,1311.6h127.5c6.6,0,12,5.4,12,12v27.9c0,6.6-5.4,12-12,12H48.2c-6.6,0-12-5.4-12-12v-27.9
		C36.3,1316.9,41.6,1311.6,48.2,1311.6z"/>
	<path class="st6" d="M48.2,1315.5h127.5c6.6,0,12,4.9,12,11v73.6c0,6.1-5.4,11-12,11H48.2c-6.6,0-12-4.9-12-11v-73.6
		C36.3,1320.5,41.6,1315.5,48.2,1315.5z"/>
</g>
<g transform="translate(-1.328 8.425)">
	<path class="st8" d="M112,325.1c-11.5,0-21.2,7.9-24,18.5h12.8c2.3-4.1,6.6-6.6,11.2-6.6c7.1,0,12.9,5.7,12.9,12.8
		c0,0.1,0,0.1,0,0.2c0,7.1-5.7,12.9-12.8,12.9c-0.1,0-0.1,0-0.2,0c-5,0-9.5-2.9-11.7-7.4H87.7c2.6,11,12.5,19.3,24.2,19.3
		c13.7,0,24.9-11.2,24.9-24.9C136.9,336.3,125.6,325.1,112,325.1z"/>
	<circle class="st9" cx="112" cy="350" r="38"/>
</g>
<g transform="translate(-1.328 -1004.438)">
	<ellipse class="st3" cx="73.6" cy="1281.7" rx="13.4" ry="15.4"/>
	<circle class="st10" cx="73.6" cy="1283.7" r="13.4"/>
</g>
<g transform="translate(18.172 -1004.438)">
	<ellipse class="st3" cx="131.8" cy="1281.7" rx="13.4" ry="15.4"/>
	<circle class="st10" cx="131.8" cy="1283.7" r="13.4"/>
</g>
<radialGradient id="SVGID_1_" cx="139.5457" cy="505.1199" r="22.671" gradientTransform="matrix(0 7.8673 8.4349 0 -4240.3135 -865.9722)" gradientUnits="userSpaceOnUse">
	<stop  offset="0" style="stop-color:#FFFFFF;stop-opacity:9.800000e-002"/>
	<stop  offset="1" style="stop-color:#FFFFFF;stop-opacity:0"/>
</radialGradient>
<path class="st11" d="M25.4,231.9c-2.7-0.1-5,2.1-5.1,4.8c0,1.2,0.4,2.3,1.1,3.2l14.4,18.6c-0.5,1.4-0.8,2.8-0.8,4.3v27.9
	c0,6.6,5.3,12,12,12h127.5c6.6,0,12-5.3,12-12v-27.9c0-1.5-0.3-2.9-0.8-4.3l14.4-18.6c1.7-2.2,1.4-5.3-0.8-7c-1-0.8-2.2-1.1-3.4-1.1
	c-1.5,0.1-2.8,0.8-3.7,2l-13.7,17.7c-1.3-0.5-2.6-0.7-3.9-0.7H46.9c-1.4,0-2.7,0.3-3.9,0.7l-13.7-17.7
	C28.4,232.7,26.9,231.9,25.4,231.9L25.4,231.9z M46.9,306.6c-0.8,0-1.6,0.1-2.4,0.2c-5.5,1.1-9.5,5.9-9.5,11.6v79.8
	c0,6.6,5.3,12,12,12h127.5c6.6,0,12-5.3,12-12v-79.8c0-5.6-4-10.5-9.5-11.6c-0.8-0.2-1.6-0.2-2.4-0.2L46.9,306.6L46.9,306.6z"/>
</svg>
