<?xml version="1.0" standalone="no"?>
<!DOCTYPE svg PUBLIC "-//W3C//DTD SVG 20010904//EN"
 "http://www.w3.org/TR/2001/REC-SVG-20010904/DTD/svg10.dtd">
<svg version="1.0" xmlns="http://www.w3.org/2000/svg"
 width="213.000000pt" height="257.000000pt" viewBox="0 0 213.000000 257.000000"
 preserveAspectRatio="xMidYMid meet">
<metadata>
Created by potrace 1.14, written by Peter Selinger 2001-2017
</metadata>
<g transform="translate(0.000000,257.000000) scale(0.100000,-0.100000)"
stroke="none">
<path d="M830 2486 c-40 -41 -58 -94 -67 -197 -6 -76 -6 -77 26 -108 17 -17
31 -33 31 -36 0 -3 -11 -10 -25 -15 -14 -5 -25 -14 -25 -19 0 -19 40 -32 75
-25 20 3 41 2 48 -4 6 -5 38 -13 70 -17 52 -7 60 -5 92 19 36 28 46 62 20 72
-9 4 -23 -4 -36 -20 -15 -19 -30 -26 -55 -26 -40 0 -43 12 -9 34 28 19 33 51
9 60 -21 8 -21 8 -36 -7 -7 -7 -26 -18 -43 -25 -26 -12 -31 -11 -42 4 -18 25
-16 32 10 39 45 14 77 30 82 44 14 36 -51 55 -89 26 -29 -22 -36 -19 -36 15 0
45 29 122 57 152 55 58 -1 92 -57 34z"/>
<path d="M1133 2130 c-18 -10 -40 -34 -50 -52 -33 -63 -64 -143 -67 -177 -2
-19 -11 -38 -20 -43 -22 -12 -20 -21 8 -55 14 -16 28 -41 31 -55 4 -14 27 -45
51 -69 39 -39 50 -44 89 -44 56 0 88 26 63 51 -12 12 -20 14 -36 5 -11 -6 -29
-11 -39 -11 -20 0 -83 58 -83 77 0 6 18 14 39 18 27 4 41 12 44 26 7 26 -26
43 -69 34 -31 -5 -34 -4 -34 18 l0 24 66 -15 c36 -8 67 -12 69 -10 2 2 2 13
-1 25 -4 16 -19 25 -56 33 -58 14 -68 31 -43 74 59 101 106 130 138 84 14 -20
18 -21 26 -8 16 23 13 35 -15 64 -32 31 -67 33 -111 6z"/>
<path d="M1407 1846 c-44 -16 -67 -34 -67 -52 0 -7 16 -43 36 -79 31 -57 39
-65 65 -65 22 0 32 7 44 31 31 60 83 52 155 -22 55 -57 130 -189 130 -230 0
-5 -13 -6 -30 -2 -27 5 -30 3 -30 -19 0 -30 79 -108 109 -108 21 0 51 25 51
41 0 6 7 17 15 25 32 32 10 81 -39 87 -26 3 -32 11 -53 67 -32 85 -106 183
-170 226 -48 32 -52 37 -46 64 5 25 2 31 -21 40 -37 14 -103 12 -149 -4z"/>
<path d="M758 1826 c-22 -14 -40 -40 -54 -75 -12 -29 -27 -57 -34 -61 -8 -5
-9 -16 -4 -31 4 -13 7 -32 5 -41 -4 -28 40 -118 68 -137 63 -43 135 -44 168
-2 27 35 -2 67 -35 39 -26 -23 -59 -28 -79 -12 -16 12 -16 15 -3 24 8 6 27 13
42 16 37 9 52 28 34 43 -8 7 -23 12 -33 11 -10 0 -36 -2 -58 -3 -30 -1 -40 2
-40 13 0 11 17 17 65 22 59 7 90 23 90 49 0 12 -41 17 -97 12 l-55 -6 27 41
c15 23 34 42 41 42 16 0 37 37 31 54 -9 24 -46 25 -79 2z"/>
<path d="M462 1777 c-12 -13 -22 -29 -22 -35 0 -6 -13 -18 -29 -26 -57 -30
-231 -223 -231 -256 0 -8 -13 -10 -39 -5 -34 6 -41 3 -51 -15 -14 -26 -4 -94
16 -114 17 -18 18 -38 3 -53 -16 -16 16 -67 38 -59 8 3 18 6 23 6 4 0 13 13
20 29 14 35 48 68 75 73 30 5 25 40 -8 56 -24 12 -27 18 -22 43 4 16 16 41 28
56 60 72 131 142 161 158 l34 18 25 -26 c36 -40 57 -34 95 24 45 69 52 111 21
133 -36 25 -111 21 -137 -7z m88 -57 c0 -5 -4 -10 -10 -10 -5 0 -10 5 -10 10
0 6 5 10 10 10 6 0 10 -4 10 -10z"/>
<path d="M348 1313 c-14 -16 -31 -38 -37 -50 -23 -44 -6 -264 25 -340 52 -123
152 -170 216 -101 16 17 36 44 44 59 16 31 28 197 15 214 -5 5 -11 26 -15 45
-26 144 -176 249 -248 173z m133 -74 c61 -63 83 -128 77 -234 -3 -60 -8 -78
-31 -108 -15 -19 -36 -39 -48 -42 -30 -10 -73 36 -93 99 -20 61 -24 242 -7
259 6 6 11 20 11 32 0 21 17 45 33 45 4 0 30 -23 58 -51z"/>
<path d="M405 1179 c-14 -22 -18 -168 -5 -184 19 -23 40 -18 40 10 0 18 7 26
25 31 23 6 25 10 25 70 0 43 -4 66 -12 68 -41 13 -68 15 -73 5z"/>
<path d="M1146 1213 c-41 -36 -56 -57 -61 -84 -9 -51 28 -143 80 -198 38 -40
47 -45 96 -48 50 -4 57 -2 101 32 71 55 79 99 41 215 -25 79 -91 130 -167 130
-27 0 -47 -11 -90 -47z m164 -35 c48 -52 64 -137 34 -184 -18 -27 -63 -54 -89
-54 -19 0 -75 53 -75 71 0 8 6 5 14 -6 8 -11 20 -16 29 -12 13 5 15 17 12 59
-4 44 -3 48 4 19 18 -66 48 -100 65 -72 7 11 -20 141 -33 154 -12 12 -31 1
-31 -19 0 -17 -12 -18 -28 -2 -19 19 -34 -4 -34 -56 -1 -25 -5 -46 -10 -46 -4
0 -8 24 -8 53 0 44 5 58 29 85 37 40 89 44 121 10z"/>
<path d="M1606 1122 c-3 -6 -19 -13 -35 -17 -49 -11 -66 -39 -65 -109 0 -33 6
-71 12 -83 14 -26 0 -40 -18 -18 -19 23 -43 18 -65 -12 -53 -71 -50 -69 -87
-54 -78 32 -118 27 -165 -19 -31 -31 -33 -31 -55 -14 -27 20 -62 90 -79 154
-16 66 -59 115 -113 130 -59 16 -89 8 -122 -36 -16 -20 -38 -40 -51 -45 -21
-8 -23 -15 -23 -73 0 -45 4 -67 16 -76 8 -8 21 -27 28 -45 15 -34 69 -85 92
-85 18 0 18 -14 -1 -30 -33 -27 -106 -144 -124 -197 l-19 -57 -11 40 c-16 56
-14 62 24 133 41 76 53 125 35 146 -21 25 -29 18 -64 -57 l-32 -73 -25 42
c-37 65 -108 82 -170 40 -31 -21 -72 -71 -82 -100 -6 -18 -41 4 -106 64 -30
27 -62 54 -72 60 -22 12 -62 12 -57 0 8 -22 118 -129 160 -156 l47 -30 1 -126
c0 -163 18 -339 36 -360 21 -23 143 -18 228 11 65 22 69 23 82 6 22 -30 48
-16 54 29 4 33 9 40 25 37 87 -12 189 -13 234 -2 46 11 51 15 51 40 0 22 5 28
23 28 12 0 78 5 147 11 69 5 138 7 154 4 26 -5 28 -8 23 -44 -8 -64 0 -67 148
-59 103 5 137 3 163 -8 31 -14 34 -13 58 9 24 22 26 29 23 104 -4 87 10 122
56 148 67 36 165 108 165 121 0 23 -19 29 -43 13 -47 -30 -139 -78 -143 -75
-2 3 -1 42 3 88 5 69 9 84 25 88 13 3 18 14 18 37 0 18 3 35 8 37 4 2 16 20
26 40 10 21 39 61 62 89 48 55 52 70 28 89 -13 11 -23 5 -69 -40 -29 -29 -61
-68 -71 -86 -23 -42 -34 -43 -56 -3 -11 18 -35 37 -58 47 -42 18 -49 32 -27
54 36 36 45 188 12 188 -8 0 -22 11 -31 25 -17 25 -26 30 -85 40 -21 4 -39 3
-43 -3z m79 -72 c29 -32 27 -116 -3 -157 -27 -38 -53 -42 -82 -11 -25 27 -26
50 -2 46 18 -3 18 1 6 73 -5 31 -2 39 17 53 31 21 42 20 64 -4z m-732 -60 c37
-39 41 -52 37 -100 -3 -34 -18 -61 -49 -87 -36 -31 -66 -29 -91 7 l-21 30 35
0 c41 0 40 -1 25 37 -6 15 -12 54 -14 85 -2 57 -2 58 35 67 3 0 22 -17 43 -39z
m-119 -102 c4 -17 2 -28 -4 -28 -5 0 -10 9 -10 19 0 11 -3 28 -6 38 -5 12 -4
15 3 8 6 -5 13 -22 17 -37z m804 -84 c20 -4 44 -12 52 -19 8 -7 30 -16 48 -20
26 -5 37 -15 48 -40 19 -47 28 -133 19 -200 -5 -47 -10 -58 -31 -66 -18 -6
-33 -5 -54 6 -16 8 -46 15 -66 15 l-38 0 41 30 c41 30 66 70 77 126 6 26 1 37
-41 84 -49 54 -93 80 -138 80 -14 0 -25 5 -25 11 0 7 12 9 35 5 19 -3 52 -9
73 -12z m-548 -39 c33 -34 33 -35 20 -75 -15 -44 -29 -50 -48 -20 -6 11 -30
29 -52 40 l-40 20 38 35 c20 19 39 35 43 35 3 0 20 -16 39 -35z m236 -2 c8
-10 21 -31 29 -48 18 -38 65 -311 65 -380 l0 -52 -146 -8 c-80 -4 -148 -4
-152 0 -3 3 -8 51 -10 105 -4 96 -4 100 17 100 18 0 21 6 21 38 1 44 28 144
53 189 34 64 95 91 123 56z m298 -54 c36 -43 42 -73 19 -111 -27 -47 -42 -47
-36 1 8 55 -3 90 -32 103 -32 14 -51 -1 -59 -47 -10 -52 1 -83 32 -87 30 -4
43 -28 14 -28 -11 0 -34 13 -51 29 -38 36 -42 85 -10 125 42 53 87 58 123 15z
m-1007 -99 c22 -43 36 -103 69 -290 8 -47 19 -100 25 -118 8 -24 8 -37 0 -46
-16 -19 -130 -46 -194 -46 l-54 0 -6 68 c-9 86 -9 290 0 320 4 16 11 22 23 19
20 -5 50 9 50 24 0 5 -11 14 -25 19 -33 13 -32 25 10 67 46 46 73 42 102 -17z
m395 9 c24 -48 40 -164 42 -299 l1 -115 -100 -3 c-55 -1 -118 1 -139 5 -36 8
-40 12 -52 58 -7 28 -16 75 -20 105 l-7 55 21 -19 c18 -15 24 -16 37 -6 8 7
15 18 15 25 0 51 100 208 144 225 30 12 39 8 58 -31z m479 -115 c10 -9 36 -18
58 -21 47 -6 51 -15 16 -31 -28 -13 -33 -43 -11 -61 11 -10 21 -9 46 4 17 9
47 15 67 13 30 -2 39 -9 55 -40 22 -42 44 -159 35 -183 -5 -11 -12 -13 -24 -7
-10 5 -57 7 -105 5 -71 -3 -88 -1 -88 11 0 7 -7 17 -16 20 -11 4 -14 13 -10
28 3 14 -1 30 -13 43 -14 15 -20 42 -24 109 -3 54 -10 91 -17 96 -7 4 -9 13
-6 19 10 15 16 14 37 -5z"/>
<path d="M1647 1033 c-9 -14 -11 -78 -3 -99 5 -16 12 -20 26 -17 16 4 20 14
20 48 0 24 -3 50 -6 59 -6 17 -29 22 -37 9z"/>
<path d="M897 974 c-21 -22 10 -114 39 -114 19 0 29 27 16 43 -6 6 -12 25 -14
42 -3 28 -25 44 -41 29z"/>
</g>
</svg>
